<?xml version="1.0" standalone="no"?>
<!DOCTYPE svg PUBLIC "-//W3C//DTD SVG 20010904//EN"
 "http://www.w3.org/TR/2001/REC-SVG-20010904/DTD/svg10.dtd">
<svg version="1.0" xmlns="http://www.w3.org/2000/svg"
 width="200.000000pt" height="200.000000pt" viewBox="0 0 200.000000 200.000000"
 preserveAspectRatio="xMidYMid meet">
<metadata>
Created by potrace 1.11, written by Peter Selinger 2001-2013
</metadata>
<g transform="translate(0.000000,200.000000) scale(0.100000,-0.100000)"
fill="#000000" stroke="none">
<path d="M1225 1814 c-49 -25 -113 -83 -147 -132 -29 -43 -32 -53 -34 -132 -2
-139 -2 -138 -26 -146 -13 -4 -36 -9 -53 -10 -58 -3 -57 -3 -51 -29 8 -32 -33
-106 -75 -136 -16 -11 -29 -17 -29 -13 0 3 -7 1 -15 -6 -8 -7 -15 -9 -15 -6 0
4 -13 -2 -29 -13 -34 -25 -61 -27 -61 -6 0 8 -10 21 -22 29 -13 8 -32 31 -42
51 -11 19 -23 35 -28 35 -4 0 -8 6 -8 13 0 7 -6 21 -13 31 -11 15 -18 16 -34
8 -15 -9 -25 -8 -39 3 -10 7 -16 17 -12 21 10 10 -31 44 -54 44 -10 0 -18 6
-18 14 0 8 -15 30 -33 49 -18 20 -39 46 -46 60 -7 13 -30 43 -52 67 -34 37
-41 41 -55 29 -24 -20 -36 -57 -41 -129 l-5 -66 46 -42 c51 -47 54 -52 28 -52
-24 0 -64 -43 -62 -66 4 -37 0 -52 -18 -56 -24 -7 -98 -154 -107 -213 -11 -80
-12 -89 -3 -107 4 -9 10 -34 12 -56 4 -46 51 -120 93 -147 15 -10 34 -25 41
-32 35 -34 116 -45 193 -27 77 19 82 18 132 -35 31 -34 47 -60 47 -77 0 -58
21 -70 133 -79 31 -2 61 -6 65 -9 5 -3 7 -34 6 -68 -2 -35 -1 -71 2 -81 3 -9
30 -35 60 -57 29 -22 60 -53 69 -69 29 -58 123 -65 197 -16 l38 25 10 -25 c12
-32 42 -43 100 -39 59 4 77 15 125 76 43 54 65 111 65 171 0 37 0 37 41 37 32
0 46 6 68 30 l28 31 62 -42 c59 -40 63 -41 76 -23 8 11 15 24 15 30 0 18 35
44 72 55 30 8 39 18 62 68 30 67 32 92 11 150 -15 44 -15 43 -15 66 0 30 -69
91 -129 116 -55 21 -60 25 -54 49 8 34 8 34 35 17 22 -15 48 -21 75 -18 7 0
28 15 48 32 53 47 93 146 66 163 -5 3 -7 29 -6 58 3 56 -14 98 -40 98 -8 0
-26 11 -41 25 -15 14 -29 23 -31 21 -3 -2 -20 13 -38 33 -29 32 -46 40 -114
56 l-79 18 0 36 c1 113 -50 229 -134 306 -50 45 -71 54 -83 34 -5 -7 -13 -4
-26 7 -15 14 -21 14 -34 4 -10 -8 -15 -9 -15 -1 0 15 -20 14 -55 -5z"/>
</g>
</svg>
